<svg width="155" height="155" viewBox="0 0 155 155" fill="none" xmlns="http://www.w3.org/2000/svg">
<g filter="url(#filter0_di_1_2149)">
<circle cx="77.5" cy="77.5" r="47.5" fill="url(#paint0_linear_1_2149)"/>
</g>
<path d="M58.3955 57.2314C61.2528 60.1266 63.1776 63.4857 64.7157 66.8212C65.1464 65.7665 65.3573 64.87 66.3769 63.9823C70.5077 66.3114 71.6767 67.788 72.037 71.0487H77.9081C78.0663 67.8847 78.5761 66.1005 81.1161 63.7705C82.5136 64.8612 82.8739 66.1356 83.5858 67.3485C84.3329 63.9296 86.8642 60.2048 90.3271 58.3934C85.7128 57.3773 80.7909 58.3556 76.8534 59.935C77.6708 60.4966 78.8485 60.922 79.2177 61.6488C77.5478 62.5093 75.746 65.371 74.7177 67.744C73.4784 65.538 70.8944 63.0472 68.3896 61.7991C69.4003 60.7813 70.411 60.4113 71.4218 59.7873C68.5214 58.1728 63.3271 57.3729 58.3955 57.2314ZM59.1733 72.6308L55.5479 82.2987H65.1112L68.7323 72.6308H59.1733ZM71.0175 72.6308L74.6386 82.2987H95.4511L91.83 72.6308H71.0175ZM69.0839 76.1991L66.2011 83.8808H59.4159V97.7675H69.0839V76.1991ZM70.6659 76.1991V97.7675H91.5839V83.8808H73.5487L70.6659 76.1991Z" fill="white"/>
<defs>
<filter id="filter0_di_1_2149" x="0" y="0" width="155" height="155" filterUnits="userSpaceOnUse" color-interpolation-filters="sRGB">
<feFlood flood-opacity="0" result="BackgroundImageFix"/>
<feColorMatrix in="SourceAlpha" type="matrix" values="0 0 0 0 0 0 0 0 0 0 0 0 0 0 0 0 0 0 127 0" result="hardAlpha"/>
<feOffset/>
<feGaussianBlur stdDeviation="15"/>
<feComposite in2="hardAlpha" operator="out"/>
<feColorMatrix type="matrix" values="0 0 0 0 0.917647 0 0 0 0 0.803922 0 0 0 0 0.639216 0 0 0 1 0"/>
<feBlend mode="normal" in2="BackgroundImageFix" result="effect1_dropShadow_1_2149"/>
<feBlend mode="normal" in="SourceGraphic" in2="effect1_dropShadow_1_2149" result="shape"/>
<feColorMatrix in="SourceAlpha" type="matrix" values="0 0 0 0 0 0 0 0 0 0 0 0 0 0 0 0 0 0 127 0" result="hardAlpha"/>
<feOffset/>
<feGaussianBlur stdDeviation="2"/>
<feComposite in2="hardAlpha" operator="arithmetic" k2="-1" k3="1"/>
<feColorMatrix type="matrix" values="0 0 0 0 1 0 0 0 0 1 0 0 0 0 1 0 0 0 1 0"/>
<feBlend mode="normal" in2="shape" result="effect2_innerShadow_1_2149"/>
</filter>
<linearGradient id="paint0_linear_1_2149" x1="30" y1="77.5" x2="125" y2="77.5" gradientUnits="userSpaceOnUse">
<stop stop-color="#EACDA3"/>
<stop offset="1" stop-color="#D6AE7B"/>
</linearGradient>
</defs>
</svg>
