<svg width="155" height="155" viewBox="0 0 155 155" fill="none" xmlns="http://www.w3.org/2000/svg">
<g filter="url(#filter0_di_1_2111)">
<circle cx="77.5" cy="77.5" r="47.5" fill="url(#paint0_linear_1_2111)"/>
</g>
<path d="M65.3531 56.05C65.6172 55.7207 65.945 55.4563 66.314 55.2751C66.683 55.0938 67.0844 55 67.4906 55H91.5094C91.9156 55 92.317 55.0938 92.686 55.2751C93.055 55.4563 93.3828 55.7207 93.6469 56.05L100.985 65.182C101.64 65.9975 102 67.036 102 68.11V68.875C102 70.3599 101.565 71.8078 100.756 73.0163C99.9474 74.2247 98.8046 75.1334 97.4878 75.6152C96.1711 76.0971 94.746 76.1281 93.4119 75.7038C92.0778 75.2796 90.9013 74.4213 90.0469 73.249C89.4229 74.1063 88.6233 74.7999 87.7092 75.2768C86.7952 75.7536 85.7909 76.001 84.7734 76C83.7559 76.0012 82.7516 75.7539 81.8375 75.2771C80.9234 74.8002 80.1238 74.1065 79.5 73.249C78.8762 74.1065 78.0766 74.8002 77.1625 75.2771C76.2484 75.7539 75.2441 76.0012 74.2266 76C73.209 76.0012 72.2047 75.7539 71.2906 75.2771C70.3766 74.8002 69.577 74.1065 68.9531 73.249C68.0987 74.4213 66.9222 75.2796 65.5881 75.7038C64.254 76.1281 62.829 76.0971 61.5122 75.6152C60.1954 75.1334 59.0526 74.2247 58.2436 73.0163C57.4346 71.8078 56.9998 70.3599 57 68.875V68.11C57 67.036 57.3602 65.9975 58.0153 65.182L65.3559 56.047L65.3531 56.05ZM70.3594 68.875C70.3594 69.969 70.7668 71.0182 71.492 71.7918C72.2173 72.5654 73.2009 73 74.2266 73C75.2522 73 76.2358 72.5654 76.9611 71.7918C77.6863 71.0182 78.0938 69.969 78.0938 68.875C78.0938 68.4772 78.2419 68.0956 78.5056 67.8143C78.7694 67.533 79.127 67.375 79.5 67.375C79.873 67.375 80.2306 67.533 80.4944 67.8143C80.7581 68.0956 80.9063 68.4772 80.9063 68.875C80.9063 69.969 81.3137 71.0182 82.0389 71.7918C82.7642 72.5654 83.7478 73 84.7734 73C85.7991 73 86.7827 72.5654 87.508 71.7918C88.2332 71.0182 88.6406 69.969 88.6406 68.875C88.6406 68.4772 88.7888 68.0956 89.0525 67.8143C89.3162 67.533 89.6739 67.375 90.0469 67.375C90.4198 67.375 90.7775 67.533 91.0412 67.8143C91.305 68.0956 91.4531 68.4772 91.4531 68.875C91.4531 69.969 91.8606 71.0182 92.5858 71.7918C93.311 72.5654 94.2947 73 95.3203 73C96.346 73 97.3296 72.5654 98.0548 71.7918C98.7801 71.0182 99.1875 69.969 99.1875 68.875V68.11C99.1875 67.7525 99.0678 67.4067 98.85 67.135L91.5094 58H67.4906L60.15 67.135C59.9322 67.4067 59.8125 67.7525 59.8125 68.11V68.875C59.8125 69.969 60.2199 71.0182 60.9452 71.7918C61.6704 72.5654 62.654 73 63.6797 73C64.7053 73 65.689 72.5654 66.4142 71.7918C67.1394 71.0182 67.5469 69.969 67.5469 68.875C67.5469 68.4772 67.695 68.0956 67.9588 67.8143C68.2225 67.533 68.5802 67.375 68.9531 67.375C69.3261 67.375 69.6838 67.533 69.9475 67.8143C70.2112 68.0956 70.3594 68.4772 70.3594 68.875ZM61.2188 77.5C61.5917 77.5 61.9494 77.658 62.2131 77.9393C62.4768 78.2206 62.625 78.6022 62.625 79V97H65.4375V82C65.4375 81.2044 65.7338 80.4413 66.2613 79.8787C66.7887 79.3161 67.5041 79 68.25 79H76.6875C77.4334 79 78.1488 79.3161 78.6762 79.8787C79.2037 80.4413 79.5 81.2044 79.5 82V97H96.375V79C96.375 78.6022 96.5232 78.2206 96.7869 77.9393C97.0506 77.658 97.4083 77.5 97.7812 77.5C98.1542 77.5 98.5119 77.658 98.7756 77.9393C99.0393 78.2206 99.1875 78.6022 99.1875 79V97H100.594C100.967 97 101.324 97.158 101.588 97.4393C101.852 97.7206 102 98.1022 102 98.5C102 98.8978 101.852 99.2794 101.588 99.5607C101.324 99.842 100.967 100 100.594 100H58.4063C58.0333 100 57.6756 99.842 57.4119 99.5607C57.1482 99.2794 57 98.8978 57 98.5C57 98.1022 57.1482 97.7206 57.4119 97.4393C57.6756 97.158 58.0333 97 58.4063 97H59.8125V79C59.8125 78.6022 59.9607 78.2206 60.2244 77.9393C60.4881 77.658 60.8458 77.5 61.2188 77.5ZM68.25 97H76.6875V82H68.25V97ZM82.3125 82C82.3125 81.2044 82.6088 80.4413 83.1363 79.8787C83.6637 79.3161 84.3791 79 85.125 79H90.75C91.4959 79 92.2113 79.3161 92.7387 79.8787C93.2662 80.4413 93.5625 81.2044 93.5625 82V91C93.5625 91.7957 93.2662 92.5587 92.7387 93.1213C92.2113 93.6839 91.4959 94 90.75 94H85.125C84.3791 94 83.6637 93.6839 83.1363 93.1213C82.6088 92.5587 82.3125 91.7957 82.3125 91V82ZM90.75 82H85.125V91H90.75V82Z" fill="white"/>
<defs>
<filter id="filter0_di_1_2111" x="0" y="0" width="155" height="155" filterUnits="userSpaceOnUse" color-interpolation-filters="sRGB">
<feFlood flood-opacity="0" result="BackgroundImageFix"/>
<feColorMatrix in="SourceAlpha" type="matrix" values="0 0 0 0 0 0 0 0 0 0 0 0 0 0 0 0 0 0 127 0" result="hardAlpha"/>
<feOffset/>
<feGaussianBlur stdDeviation="15"/>
<feComposite in2="hardAlpha" operator="out"/>
<feColorMatrix type="matrix" values="0 0 0 0 0.713726 0 0 0 0 0.870588 0 0 0 0 0.980392 0 0 0 1 0"/>
<feBlend mode="normal" in2="BackgroundImageFix" result="effect1_dropShadow_1_2111"/>
<feBlend mode="normal" in="SourceGraphic" in2="effect1_dropShadow_1_2111" result="shape"/>
<feColorMatrix in="SourceAlpha" type="matrix" values="0 0 0 0 0 0 0 0 0 0 0 0 0 0 0 0 0 0 127 0" result="hardAlpha"/>
<feOffset/>
<feGaussianBlur stdDeviation="2"/>
<feComposite in2="hardAlpha" operator="arithmetic" k2="-1" k3="1"/>
<feColorMatrix type="matrix" values="0 0 0 0 1 0 0 0 0 1 0 0 0 0 1 0 0 0 1 0"/>
<feBlend mode="normal" in2="shape" result="effect2_innerShadow_1_2111"/>
</filter>
<linearGradient id="paint0_linear_1_2111" x1="30" y1="77.5" x2="125" y2="77.5" gradientUnits="userSpaceOnUse">
<stop stop-color="#9796F0"/>
<stop offset="1" stop-color="#FBC7D4"/>
</linearGradient>
</defs>
</svg>
