<svg width="141" height="155" viewBox="0 0 141 155" fill="none" xmlns="http://www.w3.org/2000/svg">
<g filter="url(#filter0_di_1_2141)">
<circle cx="63.5" cy="77.5" r="47.5" fill="url(#paint0_linear_1_2141)"/>
</g>
<path d="M52.0435 102C50.8478 102 49.8246 101.56 48.9739 100.68C48.1217 99.7977 47.6957 98.738 47.6957 97.5005C47.6957 96.263 48.1217 95.2032 48.9739 94.3212C49.8246 93.4407 50.8478 93.0005 52.0435 93.0005C53.2391 93.0005 54.2623 93.4407 55.113 94.3212C55.9652 95.2032 56.3913 96.263 56.3913 97.5005C56.3913 98.738 55.9652 99.7977 55.113 100.68C54.2623 101.56 53.2391 102 52.0435 102ZM73.7826 102C72.587 102 71.5638 101.56 70.713 100.68C69.8609 99.7977 69.4348 98.738 69.4348 97.5005C69.4348 96.263 69.8609 95.2032 70.713 94.3212C71.5638 93.4407 72.587 93.0005 73.7826 93.0005C74.9783 93.0005 76.0022 93.4407 76.8543 94.3212C77.7051 95.2032 78.1304 96.263 78.1304 97.5005C78.1304 98.738 77.7051 99.7977 76.8543 100.68C76.0022 101.56 74.9783 102 73.7826 102ZM44.7065 90.7505L51.1739 78.6005L43.3478 61.5005H39V57.0005H46.1196L55.3587 77.2505H70.6304L79.0543 61.5005H84L73.1848 81.7505H54.4348L52.0435 86.2505H78.1304V90.7505H44.7065ZM62.913 75.0005L59.8696 71.8505L63.2935 68.2505H54.2174V63.7505H63.2935L59.8152 60.1505L62.913 57.0005L71.6087 66.0005L62.913 75.0005Z" fill="white"/>
<defs>
<filter id="filter0_di_1_2141" x="-14" y="0" width="155" height="155" filterUnits="userSpaceOnUse" color-interpolation-filters="sRGB">
<feFlood flood-opacity="0" result="BackgroundImageFix"/>
<feColorMatrix in="SourceAlpha" type="matrix" values="0 0 0 0 0 0 0 0 0 0 0 0 0 0 0 0 0 0 127 0" result="hardAlpha"/>
<feOffset/>
<feGaussianBlur stdDeviation="15"/>
<feComposite in2="hardAlpha" operator="out"/>
<feColorMatrix type="matrix" values="0 0 0 0 0.207843 0 0 0 0 0.552941 0 0 0 0 0.509804 0 0 0 1 0"/>
<feBlend mode="normal" in2="BackgroundImageFix" result="effect1_dropShadow_1_2141"/>
<feBlend mode="normal" in="SourceGraphic" in2="effect1_dropShadow_1_2141" result="shape"/>
<feColorMatrix in="SourceAlpha" type="matrix" values="0 0 0 0 0 0 0 0 0 0 0 0 0 0 0 0 0 0 127 0" result="hardAlpha"/>
<feOffset/>
<feGaussianBlur stdDeviation="2"/>
<feComposite in2="hardAlpha" operator="arithmetic" k2="-1" k3="1"/>
<feColorMatrix type="matrix" values="0 0 0 0 1 0 0 0 0 1 0 0 0 0 1 0 0 0 1 0"/>
<feBlend mode="normal" in2="shape" result="effect2_innerShadow_1_2141"/>
</filter>
<linearGradient id="paint0_linear_1_2141" x1="16" y1="77.5" x2="111" y2="77.5" gradientUnits="userSpaceOnUse">
<stop stop-color="#F2EFD3"/>
<stop offset="1" stop-color="#358D82"/>
</linearGradient>
</defs>
</svg>
