<svg width="141" height="155" viewBox="0 0 141 155" fill="none" xmlns="http://www.w3.org/2000/svg">
<g filter="url(#filter0_di_1_2173)">
<circle cx="63.5" cy="77.5" r="47.5" fill="url(#paint0_linear_1_2173)"/>
</g>
<path d="M41 96V57H45.0909V83H61.4545V62.2H77.8182C80.0682 62.2 81.9943 63.2183 83.5966 65.255C85.1989 67.2917 86 69.74 86 72.6V96H81.9091V88.2H45.0909V96H41ZM53.2727 80.4C51.5682 80.4 50.1193 79.6417 48.9261 78.125C47.733 76.6083 47.1364 74.7667 47.1364 72.6C47.1364 70.4333 47.733 68.5917 48.9261 67.075C50.1193 65.5583 51.5682 64.8 53.2727 64.8C54.9773 64.8 56.4261 65.5583 57.6193 67.075C58.8125 68.5917 59.4091 70.4333 59.4091 72.6C59.4091 74.7667 58.8125 76.6083 57.6193 78.125C56.4261 79.6417 54.9773 80.4 53.2727 80.4ZM65.5455 83H81.9091V72.6C81.9091 71.17 81.5089 69.9454 80.7084 68.9262C79.9066 67.9087 78.9432 67.4 77.8182 67.4H65.5455V83ZM53.2727 75.2C53.8523 75.2 54.3384 74.9504 54.7311 74.4512C55.1225 73.9537 55.3182 73.3367 55.3182 72.6C55.3182 71.8633 55.1225 71.2454 54.7311 70.7462C54.3384 70.2487 53.8523 70 53.2727 70C52.6932 70 52.207 70.2487 51.8143 70.7462C51.423 71.2454 51.2273 71.8633 51.2273 72.6C51.2273 73.3367 51.423 73.9537 51.8143 74.4512C52.207 74.9504 52.6932 75.2 53.2727 75.2ZM65.5455 67.4V83V67.4Z" fill="white"/>
<defs>
<filter id="filter0_di_1_2173" x="-14" y="0" width="155" height="155" filterUnits="userSpaceOnUse" color-interpolation-filters="sRGB">
<feFlood flood-opacity="0" result="BackgroundImageFix"/>
<feColorMatrix in="SourceAlpha" type="matrix" values="0 0 0 0 0 0 0 0 0 0 0 0 0 0 0 0 0 0 127 0" result="hardAlpha"/>
<feOffset/>
<feGaussianBlur stdDeviation="15"/>
<feComposite in2="hardAlpha" operator="out"/>
<feColorMatrix type="matrix" values="0 0 0 0 1 0 0 0 0 0.886275 0 0 0 0 0.34902 0 0 0 1 0"/>
<feBlend mode="normal" in2="BackgroundImageFix" result="effect1_dropShadow_1_2173"/>
<feBlend mode="normal" in="SourceGraphic" in2="effect1_dropShadow_1_2173" result="shape"/>
<feColorMatrix in="SourceAlpha" type="matrix" values="0 0 0 0 0 0 0 0 0 0 0 0 0 0 0 0 0 0 127 0" result="hardAlpha"/>
<feOffset/>
<feGaussianBlur stdDeviation="2"/>
<feComposite in2="hardAlpha" operator="arithmetic" k2="-1" k3="1"/>
<feColorMatrix type="matrix" values="0 0 0 0 1 0 0 0 0 1 0 0 0 0 1 0 0 0 1 0"/>
<feBlend mode="normal" in2="shape" result="effect2_innerShadow_1_2173"/>
</filter>
<linearGradient id="paint0_linear_1_2173" x1="16" y1="77.5" x2="111" y2="77.5" gradientUnits="userSpaceOnUse">
<stop stop-color="#FFE259"/>
<stop offset="1" stop-color="#FFA751"/>
</linearGradient>
</defs>
</svg>
