<svg width="25" height="26" viewBox="0 0 25 26" fill="none" xmlns="http://www.w3.org/2000/svg">
<path d="M24.697 7.65469C24.6835 6.61549 24.4929 5.58662 24.1339 4.61411C23.8226 3.7938 23.3472 3.04881 22.7379 2.42674C22.1287 1.80467 21.399 1.31921 20.5956 1.00136C19.6553 0.640985 18.662 0.446125 17.6579 0.425075C16.3652 0.366075 15.9553 0.349609 12.6736 0.349609C9.39193 0.349609 8.97131 0.349609 7.68793 0.425075C6.68429 0.44628 5.69145 0.641138 4.75163 1.00136C3.94809 1.31899 3.21833 1.80437 2.60904 2.42647C1.99976 3.04857 1.52436 3.79367 1.21328 4.61411C0.85962 5.57339 0.669186 6.58734 0.650207 7.61215C0.592421 8.93349 0.574951 9.35198 0.574951 12.7027C0.574951 16.0533 0.574951 16.4814 0.650207 17.7932C0.670364 18.8195 0.859847 19.8321 1.21328 20.794C1.52489 21.6141 2.00063 22.3589 2.61012 22.9808C3.21961 23.6026 3.94944 24.0878 4.75297 24.4053C5.69022 24.7802 6.68324 24.989 7.68928 25.0228C8.9834 25.0818 9.39328 25.0996 12.675 25.0996C15.9566 25.0996 16.3773 25.0996 17.6606 25.0228C18.6647 25.0026 19.6581 24.8082 20.5983 24.4479C21.4015 24.1296 22.1309 23.6441 22.7402 23.022C23.3494 22.4 23.825 21.6552 24.1366 20.8351C24.4901 19.8746 24.6795 18.862 24.6997 17.8343C24.7575 16.5144 24.775 16.0959 24.775 12.7438C24.7723 9.39314 24.7723 8.96779 24.697 7.65469ZM12.6655 19.039C9.23336 19.039 6.45294 16.2001 6.45294 12.6958C6.45294 9.19144 9.23336 6.35256 12.6655 6.35256C14.3132 6.35256 15.8934 7.02087 17.0585 8.21045C18.2236 9.40004 18.8782 11.0135 18.8782 12.6958C18.8782 14.3781 18.2236 15.9916 17.0585 17.1811C15.8934 18.3707 14.3132 19.039 12.6655 19.039ZM19.1254 7.59706C18.3231 7.59706 17.6768 6.93571 17.6768 6.11793C17.6768 5.92378 17.7142 5.73153 17.787 5.55216C17.8597 5.37278 17.9664 5.2098 18.1009 5.07252C18.2353 4.93523 18.3949 4.82633 18.5706 4.75203C18.7463 4.67773 18.9346 4.63949 19.1247 4.63949C19.3149 4.63949 19.5032 4.67773 19.6789 4.75203C19.8545 4.82633 20.0142 4.93523 20.1486 5.07252C20.2831 5.2098 20.3898 5.37278 20.4625 5.55216C20.5353 5.73153 20.5727 5.92378 20.5727 6.11793C20.5727 6.93571 19.925 7.59706 19.1254 7.59706Z" fill="#FFFDFD"/>
</svg>
