<svg width="32" height="26" viewBox="0 0 32 26" fill="none" xmlns="http://www.w3.org/2000/svg">
<path d="M31.35 2.99686C30.477 4.28694 29.406 5.38667 28.1369 6.29605C28.1494 6.53994 28.1557 6.8156 28.1557 7.12303C28.1557 8.83117 27.905 10.5414 27.4037 12.2536C26.9023 13.9659 26.1365 15.6049 25.1062 17.1705C24.076 18.7361 22.8487 20.1232 21.4245 21.3315C20.0003 22.5399 18.2883 23.5034 16.2886 24.2221C14.2889 24.9407 12.1457 25.3 9.8591 25.3C6.29046 25.3 3.00409 24.3429 0 22.4286C0.533191 22.4876 1.04457 22.5171 1.53412 22.5171C4.51543 22.5171 7.17822 21.6048 9.52249 19.7802C8.13243 19.7549 6.88753 19.3297 5.78779 18.5048C4.68805 17.6799 3.93123 16.6259 3.51734 15.3426C3.92645 15.4201 4.33022 15.4588 4.72866 15.4588C5.30219 15.4588 5.86653 15.3844 6.42169 15.2358C4.93824 14.9407 3.7076 14.2066 2.72975 13.0337C1.75194 11.8608 1.26304 10.5071 1.26304 8.97248V8.8934C2.17358 9.39427 3.14482 9.66069 4.17676 9.69267C3.29798 9.11064 2.60124 8.35165 2.08653 7.4157C1.5718 6.47975 1.31443 5.46689 1.31443 4.37712C1.31443 3.22778 1.60433 2.15752 2.18412 1.16635C3.79734 3.13312 5.7521 4.70503 8.04838 5.88207C10.3447 7.05912 12.8082 7.71282 15.4389 7.84317C15.3267 7.37861 15.2705 6.89382 15.2703 6.3888C15.2703 4.62546 15.8984 3.11982 17.1547 1.87189C18.4109 0.623965 19.9265 0 21.7014 0C23.5597 0 25.1249 0.672229 26.3971 2.01669C27.8507 1.73064 29.2117 1.21327 30.4802 0.464558C29.9915 1.99251 29.0498 3.17122 27.6551 4.00069C28.937 3.84936 30.1686 3.51475 31.3499 2.99686H31.35Z" fill="#FFFDFD"/>
</svg>
